<svg id="visual" viewBox="0 0 900 600" width="900" height="600" xmlns="http://www.w3.org/2000/svg" xmlns:xlink="http://www.w3.org/1999/xlink" version="1.1"><path d="M0 37L18.8 35C37.7 33 75.3 29 112.8 28C150.3 27 187.7 29 225.2 28C262.7 27 300.3 23 337.8 25C375.3 27 412.7 35 450.2 36C487.7 37 525.3 31 562.8 30C600.3 29 637.7 33 675.2 33C712.7 33 750.3 29 787.8 29C825.3 29 862.7 33 881.3 35L900 37L900 0L881.3 0C862.7 0 825.3 0 787.8 0C750.3 0 712.7 0 675.2 0C637.7 0 600.3 0 562.8 0C525.3 0 487.7 0 450.2 0C412.7 0 375.3 0 337.8 0C300.3 0 262.7 0 225.2 0C187.7 0 150.3 0 112.8 0C75.3 0 37.7 0 18.8 0L0 0Z" fill="#4698ce"></path><path d="M0 97L18.8 94C37.7 91 75.3 85 112.8 80C150.3 75 187.7 71 225.2 70C262.7 69 300.3 71 337.8 76C375.3 81 412.7 89 450.2 91C487.7 93 525.3 89 562.8 88C600.3 87 637.7 89 675.2 86C712.7 83 750.3 75 787.8 71C825.3 67 862.7 67 881.3 67L900 67L900 35L881.3 33C862.7 31 825.3 27 787.8 27C750.3 27 712.7 31 675.2 31C637.7 31 600.3 27 562.8 28C525.3 29 487.7 35 450.2 34C412.7 33 375.3 25 337.8 23C300.3 21 262.7 25 225.2 26C187.7 27 150.3 25 112.8 26C75.3 27 37.7 31 18.8 33L0 35Z" fill="#2986c1"></path><path d="M0 121L18.8 119C37.7 117 75.3 113 112.8 108C150.3 103 187.7 97 225.2 95C262.7 93 300.3 95 337.8 100C375.3 105 412.7 113 450.2 117C487.7 121 525.3 121 562.8 125C600.3 129 637.7 137 675.2 138C712.7 139 750.3 133 787.8 128C825.3 123 862.7 119 881.3 117L900 115L900 65L881.3 65C862.7 65 825.3 65 787.8 69C750.3 73 712.7 81 675.2 84C637.7 87 600.3 85 562.8 86C525.3 87 487.7 91 450.2 89C412.7 87 375.3 79 337.8 74C300.3 69 262.7 67 225.2 68C187.7 69 150.3 73 112.8 78C75.3 83 37.7 89 18.8 92L0 95Z" fill="#0073b0"></path><path d="M0 157L18.8 156C37.7 155 75.3 153 112.8 150C150.3 147 187.7 143 225.2 138C262.7 133 300.3 127 337.8 129C375.3 131 412.7 141 450.2 146C487.7 151 525.3 151 562.8 155C600.3 159 637.7 167 675.2 172C712.7 177 750.3 179 787.8 173C825.3 167 862.7 153 881.3 146L900 139L900 113L881.3 115C862.7 117 825.3 121 787.8 126C750.3 131 712.7 137 675.2 136C637.7 135 600.3 127 562.8 123C525.3 119 487.7 119 450.2 115C412.7 111 375.3 103 337.8 98C300.3 93 262.7 91 225.2 93C187.7 95 150.3 101 112.8 106C75.3 111 37.7 115 18.8 117L0 119Z" fill="#006295"></path><path d="M0 307L18.8 314C37.7 321 75.3 335 112.8 335C150.3 335 187.7 321 225.2 300C262.7 279 300.3 251 337.8 249C375.3 247 412.7 271 450.2 284C487.7 297 525.3 299 562.8 301C600.3 303 637.7 305 675.2 298C712.7 291 750.3 275 787.8 269C825.3 263 862.7 267 881.3 269L900 271L900 137L881.3 144C862.7 151 825.3 165 787.8 171C750.3 177 712.7 175 675.2 170C637.7 165 600.3 157 562.8 153C525.3 149 487.7 149 450.2 144C412.7 139 375.3 129 337.8 127C300.3 125 262.7 131 225.2 136C187.7 141 150.3 145 112.8 148C75.3 151 37.7 153 18.8 154L0 155Z" fill="#005885"></path><path d="M0 433L18.8 436C37.7 439 75.3 445 112.8 443C150.3 441 187.7 431 225.2 415C262.7 399 300.3 377 337.8 377C375.3 377 412.7 399 450.2 408C487.7 417 525.3 413 562.8 412C600.3 411 637.7 413 675.2 415C712.7 417 750.3 419 787.8 411C825.3 403 862.7 385 881.3 376L900 367L900 269L881.3 267C862.7 265 825.3 261 787.8 267C750.3 273 712.7 289 675.2 296C637.7 303 600.3 301 562.8 299C525.3 297 487.7 295 450.2 282C412.7 269 375.3 245 337.8 247C300.3 249 262.7 277 225.2 298C187.7 319 150.3 333 112.8 333C75.3 333 37.7 319 18.8 312L0 305Z" fill="#005885"></path><path d="M0 469L18.8 475C37.7 481 75.3 493 112.8 493C150.3 493 187.7 481 225.2 469C262.7 457 300.3 445 337.8 448C375.3 451 412.7 469 450.2 475C487.7 481 525.3 475 562.8 474C600.3 473 637.7 477 675.2 481C712.7 485 750.3 489 787.8 483C825.3 477 862.7 461 881.3 453L900 445L900 365L881.3 374C862.7 383 825.3 401 787.8 409C750.3 417 712.7 415 675.2 413C637.7 411 600.3 409 562.8 410C525.3 411 487.7 415 450.2 406C412.7 397 375.3 375 337.8 375C300.3 375 262.7 397 225.2 413C187.7 429 150.3 439 112.8 441C75.3 443 37.7 437 18.8 434L0 431Z" fill="#006295"></path><path d="M0 535L18.8 538C37.7 541 75.3 547 112.8 550C150.3 553 187.7 553 225.2 549C262.7 545 300.3 537 337.8 537C375.3 537 412.7 545 450.2 543C487.7 541 525.3 529 562.8 527C600.3 525 637.7 533 675.2 540C712.7 547 750.3 553 787.8 552C825.3 551 862.7 543 881.3 539L900 535L900 443L881.3 451C862.7 459 825.3 475 787.8 481C750.3 487 712.7 483 675.2 479C637.7 475 600.3 471 562.8 472C525.3 473 487.7 479 450.2 473C412.7 467 375.3 449 337.8 446C300.3 443 262.7 455 225.2 467C187.7 479 150.3 491 112.8 491C75.3 491 37.7 479 18.8 473L0 467Z" fill="#0073b0"></path><path d="M0 553L18.8 558C37.7 563 75.3 573 112.8 578C150.3 583 187.7 583 225.2 580C262.7 577 300.3 571 337.8 569C375.3 567 412.7 569 450.2 567C487.7 565 525.3 559 562.8 558C600.3 557 637.7 561 675.2 565C712.7 569 750.3 573 787.8 572C825.3 571 862.7 565 881.3 562L900 559L900 533L881.3 537C862.7 541 825.3 549 787.8 550C750.3 551 712.7 545 675.2 538C637.7 531 600.3 523 562.8 525C525.3 527 487.7 539 450.2 541C412.7 543 375.3 535 337.8 535C300.3 535 262.7 543 225.2 547C187.7 551 150.3 551 112.8 548C75.3 545 37.7 539 18.8 536L0 533Z" fill="#2986c1"></path><path d="M0 601L18.8 601C37.7 601 75.3 601 112.8 601C150.3 601 187.7 601 225.2 601C262.7 601 300.3 601 337.8 601C375.3 601 412.7 601 450.2 601C487.7 601 525.3 601 562.8 601C600.3 601 637.7 601 675.2 601C712.7 601 750.3 601 787.8 601C825.3 601 862.7 601 881.3 601L900 601L900 557L881.3 560C862.7 563 825.3 569 787.8 570C750.3 571 712.7 567 675.2 563C637.7 559 600.3 555 562.8 556C525.3 557 487.7 563 450.2 565C412.7 567 375.3 565 337.8 567C300.3 569 262.7 575 225.2 578C187.7 581 150.3 581 112.8 576C75.3 571 37.7 561 18.8 556L0 551Z" fill="#4698ce"></path></svg>